<svg xmlns="http://www.w3.org/2000/svg" xmlns:xlink="http://www.w3.org/1999/xlink" width="100" zoomAndPan="magnify" viewBox="0 0 75 74.999997" height="100" preserveAspectRatio="xMidYMid meet" version="1.0"><defs><clipPath id="3f680eeaf9"><path d="M 7 39 L 72.324219 39 L 72.324219 43 L 7 43 Z M 7 39 " clip-rule="nonzero"/></clipPath><clipPath id="964a60fc33"><path d="M 37 1.9375 L 44 1.9375 L 44 8 L 37 8 Z M 37 1.9375 " clip-rule="nonzero"/></clipPath><clipPath id="2d6898bbf7"><path d="M 4.074219 46 L 20 46 L 20 70.9375 L 4.074219 70.9375 Z M 4.074219 46 " clip-rule="nonzero"/></clipPath></defs><g clip-path="url(#3f680eeaf9)"><path fill="#9f9b9b" d="M 72.324219 42.707031 L 7.59375 42.707031 L 7.59375 39.859375 L 72.324219 39.859375 L 72.324219 42.707031 " fill-opacity="1" fill-rule="nonzero"/></g><g clip-path="url(#964a60fc33)"><path fill="#9f9b9b" d="M 43.027344 4.875 C 43.027344 6.496094 41.714844 7.808594 40.09375 7.808594 C 38.476562 7.808594 37.167969 6.496094 37.167969 4.875 C 37.167969 3.257812 38.476562 1.945312 40.09375 1.945312 C 41.714844 1.945312 43.027344 3.257812 43.027344 4.875 " fill-opacity="1" fill-rule="nonzero"/></g><path fill="#9f9b9b" d="M 21.046875 33.765625 L 15.824219 33.765625 C 15.824219 11.328125 33.746094 9.191406 40.097656 9.191406 C 23.183594 9.191406 21.046875 33.765625 21.046875 33.765625 Z M 39.957031 7.726562 C 8.386719 7.726562 13.132812 37.167969 13.132812 37.167969 L 67.101562 37.167969 C 67.101562 37.167969 71.53125 7.726562 39.957031 7.726562 " fill-opacity="1" fill-rule="nonzero"/><g clip-path="url(#2d6898bbf7)"><path fill="#9f9b9b" d="M 5.972656 48.84375 L 5.972656 68.542969 L 17.367188 65.898438 L 17.367188 48.84375 Z M 4.074219 70.933594 L 4.074219 46.945312 L 19.265625 46.945312 L 19.265625 67.40625 L 4.074219 70.933594 " fill-opacity="1" fill-rule="nonzero"/></g><path fill="#9f9b9b" d="M 20.929688 47.894531 C 20.929688 47.894531 35.289062 41.285156 50.246094 47.894531 L 49.390625 49.246094 C 48.519531 50.621094 47.003906 51.457031 45.378906 51.457031 L 36.359375 51.457031 C 36.359375 51.457031 31.804688 53.117188 37.167969 53.117188 C 42.53125 53.117188 51.789062 53.117188 51.789062 53.117188 C 51.789062 53.117188 62.710938 45.3125 68.167969 49.035156 L 50.957031 61.429688 L 20.929688 63.921875 L 20.929688 47.894531 " fill-opacity="1" fill-rule="nonzero"/></svg>