<svg xmlns="http://www.w3.org/2000/svg" xmlns:xlink="http://www.w3.org/1999/xlink" width="500" zoomAndPan="magnify" viewBox="0 0 375 67.499998" height="90" preserveAspectRatio="xMidYMid meet" version="1.0"><defs><g/><clipPath id="b11848ab54"><path d="M 4 36 L 61.683594 36 L 61.683594 39 L 4 39 Z M 4 36 " clip-rule="nonzero"/></clipPath><clipPath id="9958aa90ce"><path d="M 30 2.910156 L 36 2.910156 L 36 9 L 30 9 Z M 30 2.910156 " clip-rule="nonzero"/></clipPath><clipPath id="9ada2ba573"><path d="M 1.378906 42 L 15 42 L 15 63.960938 L 1.378906 63.960938 Z M 1.378906 42 " clip-rule="nonzero"/></clipPath></defs><g fill="#ffffff" fill-opacity="1"><g transform="translate(66.960927, 48.540416)"><g><path d="M 1.328125 0 L 1.328125 -0.609375 L 2.59375 -1.03125 C 3.394531 -1.3125 3.914062 -1.679688 4.15625 -2.140625 C 4.40625 -2.609375 4.53125 -3.265625 4.53125 -4.109375 L 4.53125 -35.6875 C 4.53125 -36.488281 4.414062 -37.117188 4.1875 -37.578125 C 3.96875 -38.046875 3.476562 -38.421875 2.71875 -38.703125 L 1.328125 -39.25 L 1.328125 -39.84375 L 18.59375 -39.84375 C 23.34375 -39.84375 26.984375 -38.945312 29.515625 -37.15625 C 32.054688 -35.363281 33.328125 -32.878906 33.328125 -29.703125 C 33.328125 -27.929688 32.660156 -26.160156 31.328125 -24.390625 C 30.003906 -22.617188 27.914062 -21.25 25.0625 -20.28125 L 33.453125 -3.625 C 33.804688 -2.9375 34.210938 -2.378906 34.671875 -1.953125 C 35.140625 -1.535156 35.757812 -1.164062 36.53125 -0.84375 L 37.3125 -0.546875 L 37.3125 0 L 26.5 0 L 17.5625 -19.015625 L 13.46875 -19.015625 L 13.46875 -4.109375 C 13.46875 -3.335938 13.585938 -2.710938 13.828125 -2.234375 C 14.066406 -1.753906 14.566406 -1.390625 15.328125 -1.140625 L 16.78125 -0.609375 L 16.78125 0 Z M 13.46875 -20.21875 L 16.359375 -20.21875 C 19.253906 -20.21875 21.347656 -20.992188 22.640625 -22.546875 C 23.929688 -24.097656 24.578125 -26.40625 24.578125 -29.46875 C 24.578125 -32.5625 23.972656 -34.863281 22.765625 -36.375 C 21.554688 -37.882812 19.519531 -38.640625 16.65625 -38.640625 L 13.46875 -38.640625 Z M 13.46875 -20.21875 "/></g></g></g><g fill="#ffffff" fill-opacity="1"><g transform="translate(104.875248, 48.540416)"><g><path d="M 16.359375 -29.953125 C 18.972656 -29.953125 21.207031 -29.414062 23.0625 -28.34375 C 24.914062 -27.28125 26.332031 -25.832031 27.3125 -24 C 28.300781 -22.164062 28.796875 -20.082031 28.796875 -17.75 C 28.796875 -17.3125 28.773438 -16.859375 28.734375 -16.390625 C 28.691406 -15.929688 28.613281 -15.519531 28.5 -15.15625 L 10.5 -15.15625 C 10.539062 -10.8125 11.316406 -7.679688 12.828125 -5.765625 C 14.335938 -3.847656 16.582031 -2.890625 19.5625 -2.890625 C 21.570312 -2.890625 23.203125 -3.210938 24.453125 -3.859375 C 25.703125 -4.503906 26.867188 -5.453125 27.953125 -6.703125 L 28.5625 -6.15625 C 27.3125 -3.945312 25.648438 -2.21875 23.578125 -0.96875 C 21.503906 0.28125 19.019531 0.90625 16.125 0.90625 C 13.257812 0.90625 10.71875 0.289062 8.5 -0.9375 C 6.289062 -2.164062 4.5625 -3.925781 3.3125 -6.21875 C 2.070312 -8.507812 1.453125 -11.242188 1.453125 -14.421875 C 1.453125 -17.722656 2.175781 -20.53125 3.625 -22.84375 C 5.070312 -25.164062 6.929688 -26.929688 9.203125 -28.140625 C 11.484375 -29.347656 13.867188 -29.953125 16.359375 -29.953125 Z M 16.1875 -28.734375 C 15.007812 -28.734375 14.007812 -28.378906 13.1875 -27.671875 C 12.363281 -26.972656 11.71875 -25.726562 11.25 -23.9375 C 10.789062 -22.144531 10.539062 -19.617188 10.5 -16.359375 L 20.828125 -16.359375 C 21.234375 -20.742188 21.070312 -23.898438 20.34375 -25.828125 C 19.625 -27.765625 18.238281 -28.734375 16.1875 -28.734375 Z M 16.1875 -28.734375 "/></g></g></g><g fill="#ffffff" fill-opacity="1"><g transform="translate(135.484422, 48.540416)"><g><path d="M 16.1875 0.90625 C 13.445312 0.90625 10.957031 0.3125 8.71875 -0.875 C 6.488281 -2.0625 4.71875 -3.789062 3.40625 -6.0625 C 2.101562 -8.34375 1.453125 -11.128906 1.453125 -14.421875 C 1.453125 -17.679688 2.164062 -20.46875 3.59375 -22.78125 C 5.019531 -25.101562 6.929688 -26.878906 9.328125 -28.109375 C 11.722656 -29.335938 14.347656 -29.953125 17.203125 -29.953125 C 19.535156 -29.953125 21.503906 -29.566406 23.109375 -28.796875 C 24.722656 -28.035156 25.953125 -27.039062 26.796875 -25.8125 C 27.648438 -24.582031 28.078125 -23.300781 28.078125 -21.96875 C 28.078125 -20.84375 27.734375 -19.96875 27.046875 -19.34375 C 26.359375 -18.726562 25.472656 -18.421875 24.390625 -18.421875 C 23.222656 -18.421875 22.273438 -18.84375 21.546875 -19.6875 C 20.828125 -20.53125 20.40625 -21.632812 20.28125 -23 C 20.238281 -23.882812 20.257812 -24.640625 20.34375 -25.265625 C 20.425781 -25.890625 20.425781 -26.523438 20.34375 -27.171875 C 20.1875 -27.847656 19.9375 -28.296875 19.59375 -28.515625 C 19.25 -28.742188 18.773438 -28.859375 18.171875 -28.859375 C 15.710938 -28.859375 13.804688 -27.789062 12.453125 -25.65625 C 11.109375 -23.519531 10.4375 -20.117188 10.4375 -15.453125 C 10.4375 -11.390625 11.191406 -8.28125 12.703125 -6.125 C 14.210938 -3.96875 16.539062 -2.890625 19.6875 -2.890625 C 21.570312 -2.890625 23.097656 -3.234375 24.265625 -3.921875 C 25.429688 -4.609375 26.5625 -5.632812 27.65625 -7 L 28.25 -6.515625 C 27.25 -4.140625 25.703125 -2.304688 23.609375 -1.015625 C 21.515625 0.265625 19.039062 0.90625 16.1875 0.90625 Z M 16.1875 0.90625 "/></g></g></g><g fill="#ffffff" fill-opacity="1"><g transform="translate(165.308749, 48.540416)"><g><path d="M 8.453125 -33.078125 C 7.085938 -33.078125 5.929688 -33.507812 4.984375 -34.375 C 4.035156 -35.25 3.5625 -36.347656 3.5625 -37.671875 C 3.5625 -39.046875 4.035156 -40.15625 4.984375 -41 C 5.929688 -41.84375 7.085938 -42.265625 8.453125 -42.265625 C 9.816406 -42.265625 10.960938 -41.84375 11.890625 -41 C 12.816406 -40.15625 13.28125 -39.046875 13.28125 -37.671875 C 13.28125 -36.347656 12.816406 -35.25 11.890625 -34.375 C 10.960938 -33.507812 9.816406 -33.078125 8.453125 -33.078125 Z M 1.328125 0 L 1.328125 -0.609375 L 2.171875 -0.84375 C 2.972656 -1.082031 3.523438 -1.441406 3.828125 -1.921875 C 4.128906 -2.410156 4.28125 -3.054688 4.28125 -3.859375 L 4.28125 -22.765625 C 4.28125 -23.609375 4.128906 -24.238281 3.828125 -24.65625 C 3.523438 -25.082031 2.972656 -25.375 2.171875 -25.53125 L 1.328125 -25.71875 L 1.328125 -26.328125 L 12.375 -29.890625 L 12.984375 -29.28125 L 12.796875 -20.703125 L 12.796875 -3.796875 C 12.796875 -2.992188 12.945312 -2.347656 13.25 -1.859375 C 13.550781 -1.378906 14.085938 -1.019531 14.859375 -0.78125 L 15.453125 -0.609375 L 15.453125 0 Z M 1.328125 0 "/></g></g></g><g fill="#ffffff" fill-opacity="1"><g transform="translate(182.213231, 48.540416)"><g><path d="M 1.203125 13.890625 L 1.203125 13.28125 L 1.9375 13.046875 C 3.425781 12.640625 4.171875 11.671875 4.171875 10.140625 L 4.171875 -22.703125 C 4.171875 -23.585938 4.019531 -24.25 3.71875 -24.6875 C 3.414062 -25.132812 2.859375 -25.4375 2.046875 -25.59375 L 1.203125 -25.78125 L 1.203125 -26.390625 L 11.46875 -29.890625 L 12.078125 -29.28125 L 12.625 -27.40625 C 13.945312 -28.21875 15.421875 -28.84375 17.046875 -29.28125 C 18.679688 -29.726562 20.363281 -29.953125 22.09375 -29.953125 C 25.5625 -29.953125 28.3125 -28.628906 30.34375 -25.984375 C 32.375 -23.347656 33.390625 -19.578125 33.390625 -14.671875 C 33.390625 -9.835938 32.269531 -6.03125 30.03125 -3.25 C 27.800781 -0.476562 24.65625 0.90625 20.59375 0.90625 C 17.40625 0.90625 14.726562 0.441406 12.5625 -0.484375 L 12.5625 9.96875 C 12.5625 11.570312 13.285156 12.578125 14.734375 12.984375 L 15.875 13.28125 L 15.875 13.890625 Z M 17.6875 -0.84375 C 19.695312 -0.84375 21.296875 -1.890625 22.484375 -3.984375 C 23.671875 -6.078125 24.265625 -9.554688 24.265625 -14.421875 C 24.265625 -19.296875 23.703125 -22.707031 22.578125 -24.65625 C 21.453125 -26.613281 19.820312 -27.59375 17.6875 -27.59375 C 16.195312 -27.59375 14.546875 -27.109375 12.734375 -26.140625 L 12.734375 -1.8125 C 14.265625 -1.164062 15.914062 -0.84375 17.6875 -0.84375 Z M 17.6875 -0.84375 "/></g></g></g><g fill="#ffffff" fill-opacity="1"><g transform="translate(217.108898, 48.540416)"><g><path d="M 16.359375 -29.953125 C 18.972656 -29.953125 21.207031 -29.414062 23.0625 -28.34375 C 24.914062 -27.28125 26.332031 -25.832031 27.3125 -24 C 28.300781 -22.164062 28.796875 -20.082031 28.796875 -17.75 C 28.796875 -17.3125 28.773438 -16.859375 28.734375 -16.390625 C 28.691406 -15.929688 28.613281 -15.519531 28.5 -15.15625 L 10.5 -15.15625 C 10.539062 -10.8125 11.316406 -7.679688 12.828125 -5.765625 C 14.335938 -3.847656 16.582031 -2.890625 19.5625 -2.890625 C 21.570312 -2.890625 23.203125 -3.210938 24.453125 -3.859375 C 25.703125 -4.503906 26.867188 -5.453125 27.953125 -6.703125 L 28.5625 -6.15625 C 27.3125 -3.945312 25.648438 -2.21875 23.578125 -0.96875 C 21.503906 0.28125 19.019531 0.90625 16.125 0.90625 C 13.257812 0.90625 10.71875 0.289062 8.5 -0.9375 C 6.289062 -2.164062 4.5625 -3.925781 3.3125 -6.21875 C 2.070312 -8.507812 1.453125 -11.242188 1.453125 -14.421875 C 1.453125 -17.722656 2.175781 -20.53125 3.625 -22.84375 C 5.070312 -25.164062 6.929688 -26.929688 9.203125 -28.140625 C 11.484375 -29.347656 13.867188 -29.953125 16.359375 -29.953125 Z M 16.1875 -28.734375 C 15.007812 -28.734375 14.007812 -28.378906 13.1875 -27.671875 C 12.363281 -26.972656 11.71875 -25.726562 11.25 -23.9375 C 10.789062 -22.144531 10.539062 -19.617188 10.5 -16.359375 L 20.828125 -16.359375 C 21.234375 -20.742188 21.070312 -23.898438 20.34375 -25.828125 C 19.625 -27.765625 18.238281 -28.734375 16.1875 -28.734375 Z M 16.1875 -28.734375 "/></g></g></g><g fill="#ffffff" fill-opacity="1"><g transform="translate(247.718072, 48.540416)"><g><path d="M 11.65625 0.90625 C 9.675781 0.90625 7.898438 0.671875 6.328125 0.203125 C 4.765625 -0.253906 3.320312 -0.828125 2 -1.515625 L 2.046875 -8.6875 L 2.65625 -8.6875 L 4.703125 -5.078125 C 5.585938 -3.460938 6.5625 -2.257812 7.625 -1.46875 C 8.695312 -0.6875 10.0625 -0.296875 11.71875 -0.296875 C 13.644531 -0.296875 15.203125 -0.726562 16.390625 -1.59375 C 17.578125 -2.457031 18.171875 -3.617188 18.171875 -5.078125 C 18.171875 -6.398438 17.75 -7.484375 16.90625 -8.328125 C 16.0625 -9.171875 14.492188 -9.9375 12.203125 -10.625 L 9.65625 -11.40625 C 7.207031 -12.132812 5.273438 -13.265625 3.859375 -14.796875 C 2.453125 -16.328125 1.75 -18.195312 1.75 -20.40625 C 1.75 -23.0625 2.796875 -25.316406 4.890625 -27.171875 C 6.984375 -29.023438 9.984375 -29.953125 13.890625 -29.953125 C 15.453125 -29.953125 16.925781 -29.78125 18.3125 -29.4375 C 19.707031 -29.09375 21.050781 -28.578125 22.34375 -27.890625 L 21.96875 -21.375 L 21.375 -21.375 L 19.265625 -25.109375 C 18.492188 -26.441406 17.734375 -27.378906 16.984375 -27.921875 C 16.242188 -28.460938 15.128906 -28.734375 13.640625 -28.734375 C 12.273438 -28.734375 10.988281 -28.347656 9.78125 -27.578125 C 8.570312 -26.816406 7.96875 -25.734375 7.96875 -24.328125 C 7.96875 -22.960938 8.476562 -21.875 9.5 -21.0625 C 10.53125 -20.257812 12.050781 -19.519531 14.0625 -18.84375 L 16.78125 -18.046875 C 19.675781 -17.160156 21.75 -15.941406 23 -14.390625 C 24.25 -12.847656 24.875 -10.988281 24.875 -8.8125 C 24.875 -5.875 23.71875 -3.519531 21.40625 -1.75 C 19.09375 0.0195312 15.84375 0.90625 11.65625 0.90625 Z M 11.65625 0.90625 "/></g></g></g><g fill="#ffffff" fill-opacity="1"><g transform="translate(274.032521, 48.540416)"><g/></g></g><g clip-path="url(#b11848ab54)"><path fill="#f15d3c" d="M 61.683594 38.980469 L 4.492188 38.980469 L 4.492188 36.460938 L 61.683594 36.460938 L 61.683594 38.980469 " fill-opacity="1" fill-rule="nonzero"/></g><g clip-path="url(#9958aa90ce)"><path fill="#f15d3c" d="M 35.796875 5.507812 C 35.796875 6.941406 34.636719 8.101562 33.207031 8.101562 C 31.777344 8.101562 30.621094 6.941406 30.621094 5.507812 C 30.621094 4.078125 31.777344 2.917969 33.207031 2.917969 C 34.636719 2.917969 35.796875 4.078125 35.796875 5.507812 " fill-opacity="1" fill-rule="nonzero"/></g><path fill="#f15d3c" d="M 16.375 31.070312 L 11.761719 31.070312 C 11.761719 11.21875 27.597656 9.328125 33.207031 9.328125 C 18.265625 9.328125 16.375 31.070312 16.375 31.070312 Z M 33.085938 8.03125 C 5.1875 8.03125 9.382812 34.082031 9.382812 34.082031 L 57.070312 34.082031 C 57.070312 34.082031 60.984375 8.03125 33.085938 8.03125 " fill-opacity="1" fill-rule="nonzero"/><g clip-path="url(#9ada2ba573)"><path fill="#f15d3c" d="M 3.054688 44.410156 L 3.054688 61.839844 L 13.125 59.5 L 13.125 44.410156 Z M 1.378906 63.953125 L 1.378906 42.730469 L 14.804688 42.730469 L 14.804688 60.832031 L 1.378906 63.953125 " fill-opacity="1" fill-rule="nonzero"/></g><path fill="#f15d3c" d="M 16.273438 43.570312 C 16.273438 43.570312 28.960938 37.722656 42.175781 43.570312 L 41.417969 44.765625 C 40.648438 45.984375 39.3125 46.722656 37.875 46.722656 L 29.90625 46.722656 C 29.90625 46.722656 25.882812 48.191406 30.621094 48.191406 C 35.359375 48.191406 43.539062 48.191406 43.539062 48.191406 C 43.539062 48.191406 53.1875 41.285156 58.011719 44.582031 L 42.804688 55.542969 L 16.273438 57.75 L 16.273438 43.570312 " fill-opacity="1" fill-rule="nonzero"/></svg>