<svg xmlns="http://www.w3.org/2000/svg" xmlns:xlink="http://www.w3.org/1999/xlink" width="800" zoomAndPan="magnify" viewBox="0 0 600 599.999999" height="800" preserveAspectRatio="xMidYMid meet" version="1.0"><defs><clipPath id="bc008c5026"><path d="M 53 305 L 574.878906 305 L 574.878906 329 L 53 329 Z M 53 305 " clip-rule="nonzero"/></clipPath><clipPath id="8dcc63b529"><path d="M 25.128906 362 L 148 362 L 148 555.75 L 25.128906 555.75 Z M 25.128906 362 " clip-rule="nonzero"/></clipPath></defs><g clip-path="url(#bc008c5026)"><path fill="#f15d3c" d="M 574.886719 328.375 L 53.5 328.375 L 53.5 305.421875 L 574.886719 305.421875 L 574.886719 328.375 " fill-opacity="1" fill-rule="nonzero"/></g><path fill="#f15d3c" d="M 338.898438 23.640625 C 338.898438 36.679688 328.332031 47.253906 315.292969 47.253906 C 302.265625 47.253906 291.703125 36.679688 291.703125 23.640625 C 291.703125 10.609375 302.265625 0.0390625 315.292969 0.0390625 C 328.332031 0.0390625 338.898438 10.609375 338.898438 23.640625 " fill-opacity="1" fill-rule="nonzero"/><path fill="#f15d3c" d="M 161.851562 256.339844 L 119.78125 256.339844 C 119.78125 75.601562 264.152344 58.390625 315.308594 58.390625 C 179.0625 58.390625 161.851562 256.339844 161.851562 256.339844 Z M 314.191406 46.59375 C 59.867188 46.59375 98.113281 283.75 98.113281 283.75 L 532.820312 283.75 C 532.820312 283.75 568.515625 46.59375 314.191406 46.59375 " fill-opacity="1" fill-rule="nonzero"/><g clip-path="url(#8dcc63b529)"><path fill="#f15d3c" d="M 40.425781 377.785156 L 40.425781 536.460938 L 132.21875 515.152344 L 132.21875 377.785156 Z M 25.136719 555.722656 L 25.136719 362.484375 L 147.511719 362.484375 L 147.511719 527.300781 L 25.136719 555.722656 " fill-opacity="1" fill-rule="nonzero"/></g><path fill="#f15d3c" d="M 160.898438 370.136719 C 160.898438 370.136719 276.589844 316.902344 397.054688 370.136719 L 390.152344 381.039062 C 383.136719 392.113281 370.949219 398.824219 357.84375 398.824219 L 285.195312 398.824219 C 285.195312 398.824219 248.503906 412.214844 291.703125 412.214844 C 334.910156 412.214844 409.480469 412.214844 409.480469 412.214844 C 409.480469 412.214844 497.449219 349.34375 541.429688 379.34375 L 402.789062 479.152344 L 160.898438 499.234375 L 160.898438 370.136719 " fill-opacity="1" fill-rule="nonzero"/></svg>